<svg width="110" height="34" viewBox="0 0 110 34" fill="none" xmlns="http://www.w3.org/2000/svg">
<path d="M50.908 14.168C49.8907 14.168 48.9713 13.9487 48.15 13.51C47.338 13.0713 46.6987 12.4693 46.232 11.704C45.7747 10.9293 45.546 10.0613 45.546 9.1C45.546 8.13867 45.7747 7.27533 46.232 6.51C46.6987 5.73533 47.338 5.12867 48.15 4.69C48.9713 4.25133 49.8907 4.032 50.908 4.032C51.9253 4.032 52.84 4.25133 53.652 4.69C54.464 5.12867 55.1033 5.73533 55.57 6.51C56.0367 7.27533 56.27 8.13867 56.27 9.1C56.27 10.0613 56.0367 10.9293 55.57 11.704C55.1033 12.4693 54.464 13.0713 53.652 13.51C52.84 13.9487 51.9253 14.168 50.908 14.168ZM50.908 12.236C51.4867 12.236 52.0093 12.1053 52.476 11.844C52.9427 11.5733 53.3067 11.2 53.568 10.724C53.8387 10.248 53.974 9.70667 53.974 9.1C53.974 8.49333 53.8387 7.952 53.568 7.476C53.3067 7 52.9427 6.63133 52.476 6.37C52.0093 6.09933 51.4867 5.964 50.908 5.964C50.3293 5.964 49.8067 6.09933 49.34 6.37C48.8733 6.63133 48.5047 7 48.234 7.476C47.9727 7.952 47.842 8.49333 47.842 9.1C47.842 9.70667 47.9727 10.248 48.234 10.724C48.5047 11.2 48.8733 11.5733 49.34 11.844C49.8067 12.1053 50.3293 12.236 50.908 12.236ZM64.2185 14L62.3285 11.27H62.2165H60.2425V14H57.9745V4.2H62.2165C63.0845 4.2 63.8358 4.34467 64.4705 4.634C65.1145 4.92333 65.6092 5.334 65.9545 5.866C66.2998 6.398 66.4725 7.028 66.4725 7.756C66.4725 8.484 66.2952 9.114 65.9405 9.646C65.5952 10.1687 65.1005 10.57 64.4565 10.85L66.6545 14H64.2185ZM64.1765 7.756C64.1765 7.20533 63.9992 6.78533 63.6445 6.496C63.2898 6.19733 62.7718 6.048 62.0905 6.048H60.2425V9.464H62.0905C62.7718 9.464 63.2898 9.31467 63.6445 9.016C63.9992 8.71733 64.1765 8.29733 64.1765 7.756ZM77.2574 4.2V14H75.3954L70.5094 8.05V14H68.2694V4.2H70.1454L75.0174 10.15V4.2H77.2574ZM84.2801 10.528V14H82.0121V10.5L78.2181 4.2H80.6261L83.2441 8.554L85.8621 4.2H88.0881L84.2801 10.528ZM50.852 31.168C49.8533 31.168 48.948 30.9533 48.136 30.524C47.3333 30.0853 46.6987 29.4833 46.232 28.718C45.7747 27.9433 45.546 27.0707 45.546 26.1C45.546 25.1293 45.7747 24.2613 46.232 23.496C46.6987 22.7213 47.3333 22.1193 48.136 21.69C48.948 21.2513 49.858 21.032 50.866 21.032C51.7153 21.032 52.4807 21.1813 53.162 21.48C53.8527 21.7787 54.4313 22.208 54.898 22.768L53.442 24.112C52.7793 23.3467 51.958 22.964 50.978 22.964C50.3713 22.964 49.83 23.0993 49.354 23.37C48.878 23.6313 48.5047 24 48.234 24.476C47.9727 24.952 47.842 25.4933 47.842 26.1C47.842 26.7067 47.9727 27.248 48.234 27.724C48.5047 28.2 48.878 28.5733 49.354 28.844C49.83 29.1053 50.3713 29.236 50.978 29.236C51.958 29.236 52.7793 28.8487 53.442 28.074L54.898 29.418C54.4313 29.9873 53.8527 30.4213 53.162 30.72C52.4713 31.0187 51.7013 31.168 50.852 31.168ZM60.9705 31.168C59.9532 31.168 59.0338 30.9487 58.2125 30.51C57.4005 30.0713 56.7612 29.4693 56.2945 28.704C55.8372 27.9293 55.6085 27.0613 55.6085 26.1C55.6085 25.1387 55.8372 24.2753 56.2945 23.51C56.7612 22.7353 57.4005 22.1287 58.2125 21.69C59.0338 21.2513 59.9532 21.032 60.9705 21.032C61.9878 21.032 62.9025 21.2513 63.7145 21.69C64.5265 22.1287 65.1658 22.7353 65.6325 23.51C66.0992 24.2753 66.3325 25.1387 66.3325 26.1C66.3325 27.0613 66.0992 27.9293 65.6325 28.704C65.1658 29.4693 64.5265 30.0713 63.7145 30.51C62.9025 30.9487 61.9878 31.168 60.9705 31.168ZM60.9705 29.236C61.5492 29.236 62.0718 29.1053 62.5385 28.844C63.0052 28.5733 63.3692 28.2 63.6305 27.724C63.9012 27.248 64.0365 26.7067 64.0365 26.1C64.0365 25.4933 63.9012 24.952 63.6305 24.476C63.3692 24 63.0052 23.6313 62.5385 23.37C62.0718 23.0993 61.5492 22.964 60.9705 22.964C60.3918 22.964 59.8692 23.0993 59.4025 23.37C58.9358 23.6313 58.5672 24 58.2965 24.476C58.0352 24.952 57.9045 25.4933 57.9045 26.1C57.9045 26.7067 58.0352 27.248 58.2965 27.724C58.5672 28.2 58.9358 28.5733 59.4025 28.844C59.8692 29.1053 60.3918 29.236 60.9705 29.236ZM72.391 31.168C70.991 31.168 69.899 30.7807 69.115 30.006C68.3403 29.2313 67.953 28.1253 67.953 26.688V21.2H70.221V26.604C70.221 28.3587 70.949 29.236 72.405 29.236C73.1143 29.236 73.6557 29.026 74.029 28.606C74.4023 28.1767 74.589 27.5093 74.589 26.604V21.2H76.829V26.688C76.829 28.1253 76.437 29.2313 75.653 30.006C74.8783 30.7807 73.791 31.168 72.391 31.168ZM85.6922 25.946H87.7642V29.922C87.2322 30.3233 86.6162 30.6313 85.9162 30.846C85.2162 31.0607 84.5115 31.168 83.8022 31.168C82.7849 31.168 81.8702 30.9533 81.0582 30.524C80.2462 30.0853 79.6069 29.4833 79.1402 28.718C78.6829 27.9433 78.4542 27.0707 78.4542 26.1C78.4542 25.1293 78.6829 24.2613 79.1402 23.496C79.6069 22.7213 80.2509 22.1193 81.0722 21.69C81.8935 21.2513 82.8175 21.032 83.8442 21.032C84.7029 21.032 85.4822 21.1767 86.1822 21.466C86.8822 21.7553 87.4702 22.1753 87.9462 22.726L86.4902 24.07C85.7902 23.3327 84.9455 22.964 83.9562 22.964C83.3309 22.964 82.7755 23.0947 82.2902 23.356C81.8049 23.6173 81.4269 23.986 81.1562 24.462C80.8855 24.938 80.7502 25.484 80.7502 26.1C80.7502 26.7067 80.8855 27.248 81.1562 27.724C81.4269 28.2 81.8002 28.5733 82.2762 28.844C82.7615 29.1053 83.3122 29.236 83.9282 29.236C84.5815 29.236 85.1695 29.096 85.6922 28.816V25.946ZM96.325 28.9H91.775L90.907 31H88.583L92.951 21.2H95.191L99.573 31H97.193L96.325 28.9ZM95.611 27.178L94.057 23.426L92.503 27.178H95.611ZM106.834 31L104.944 28.27H104.832H102.858V31H100.59V21.2H104.832C105.7 21.2 106.451 21.3447 107.086 21.634C107.73 21.9233 108.224 22.334 108.57 22.866C108.915 23.398 109.088 24.028 109.088 24.756C109.088 25.484 108.91 26.114 108.556 26.646C108.21 27.1687 107.716 27.57 107.072 27.85L109.27 31H106.834ZM106.792 24.756C106.792 24.2053 106.614 23.7853 106.26 23.496C105.905 23.1973 105.387 23.048 104.706 23.048H102.858V26.464H104.706C105.387 26.464 105.905 26.3147 106.26 26.016C106.614 25.7173 106.792 25.2973 106.792 24.756Z" fill="white"/>
<path d="M4.64014 4.65518C7.64014 4.65518 9.64014 6.48277 12.6401 10.1379C15.6401 13.7931 20.5971 16.709 24.6401 17.4483C29.6401 18.3621 33.6401 22.0173 33.6401 27.5C33.6401 31.9749 29.7941 33.8966 24.6401 33.8966C19.6401 33.8966 15.6401 31.1552 10.6401 26.5862C5.64014 22.0173 0.640137 13.7931 0.640137 10.1379C0.640137 6.48277 1.64014 4.65518 4.64014 4.65518Z" fill="#744EAA"/>
<path d="M2.15491 1C3.40291 1 3.40291 2.14041 3.40291 3.27991C3.40291 4.89184 4.65091 4.31159 5.89891 4.31159C7.14491 4.31159 9.63991 6.48276 9.63991 6.48276H5.89791C4.64991 6.48276 5.89791 8.87141 4.64991 8.87141C3.40191 8.87141 3.40191 7.78583 2.15491 7.78583C0.907907 7.78583 0.639907 11.0517 0.639907 11.0517C0.639907 11.0517 -0.964093 7.25674 0.906907 5.54703C2.15491 4.40662 -0.340093 1 2.15491 1Z" fill="#77B255"/>
</svg>
